# xmcd
# Track frame offsets:
# 150
# 17478
# 35255
# 52700
# 71420
# 87382
# 102070
# 118376
# 135319
# 155875
# 175570
# 191999
# 203823
# 217419
# 239872
#
# Disc length: 3454 seconds
# Revision: 0
# Processed by: cddbd v1.5.1PL0 Copyright (c) Steve Scherf et al.
# Submitted via: VisiTrax 2.9.10.228 - For more info visit www.synapsa.com
#
DISCID=d70d7c0f
DTITLE=Keith, Toby - CB90047
DYEAR=1900
DGENRE=Karaoke
TTITLE0=Big Ol' Truck
TTITLE1=Does That Blue Moon Ever Shine On You
TTITLE2=Double Wide Paradise
TTITLE3=Dream Walkin'
TTITLE4=Getcha Some
TTITLE5=If A Man Answers
TTITLE6=Me Too
TTITLE7=Should've Been A Cowboy
TTITLE8=Upstairs Downstairs
TTITLE9=We Were In Love
TTITLE10=Wish I Didn't Know Now
TTITLE11=You Ain't Much Fun
TTITLE12=Little Less Talk and A Lot More Action, A
TTITLE13=Who's That Man
TTITLE14=I'm So Happy I Can't Stop Crying
EXTD=
EXTT0=
EXTT1=
EXTT2=
EXTT3=
EXTT4=
EXTT5=
EXTT6=
EXTT7=
EXTT8=
EXTT9=
EXTT10=
EXTT11=
EXTT12=
EXTT13=
EXTT14=
PLAYORDER=
